# xmcd
#
# Track frame offsets: 
#        150
#        14579
#        27143
#        44160
#        60903
#        78065
#        90933
#        101148
#        117170
#        128970
#        143296
#        159737
#
# Disc length: 2434 seconds
#
# Revision: 0
# Processed by: cddbd v1.5.2PL0 Copyright (c) Steve Scherf et al.
# Submitted via: ExactAudioCopyFreeDBPlugin 1.0
#
DISCID=8e09800c
DTITLE=VIBROKINGS - BACKFIRE
DYEAR=2011
DGENRE=Blues
TTITLE0=Take It Slow
TTITLE1=Run
TTITLE2=Songs About Me and You
TTITLE3=Money Talks
TTITLE4=Memories
TTITLE5=Backfire
TTITLE6=Sleepless
TTITLE7=Here to Stay
TTITLE8=Kings and Queens
TTITLE9=Begging for Love
TTITLE10=The Laugh
TTITLE11=Soulman
EXTD=
EXTT0=
EXTT1=
EXTT2=
EXTT3=
EXTT4=
EXTT5=
EXTT6=
EXTT7=
EXTT8=
EXTT9=
EXTT10=
EXTT11=
PLAYORDER=
